<?xml version="1.0" standalone="no"?>
<!DOCTYPE svg PUBLIC "-//W3C//DTD SVG 20010904//EN"
 "http://www.w3.org/TR/2001/REC-SVG-20010904/DTD/svg10.dtd">
<svg version="1.0" xmlns="http://www.w3.org/2000/svg"
 width="2048.000000pt" height="2048.000000pt" viewBox="0 0 2048.000000 2048.000000"
 preserveAspectRatio="xMidYMid meet">

<g transform="translate(0.000000,2048.000000) scale(0.100000,-0.100000)"
fill="#000000" stroke="none">
<path d="M10650 17479 c-3294 -153 -6423 -1832 -8089 -4339 -818 -1231 -1229
-2557 -1198 -3860 14 -582 102 -1100 277 -1630 269 -818 682 -1504 1311 -2180
89 -95 128 -144 122 -153 -4 -7 -42 -57 -82 -112 -120 -160 -292 -430 -423
-660 -250 -442 -365 -779 -424 -1245 -12 -102 -15 -177 -11 -305 6 -185 24
-288 77 -454 42 -132 166 -376 247 -490 82 -114 264 -305 431 -452 335 -294
593 -458 1098 -698 577 -273 658 -296 1679 -465 487 -80 701 -107 1035 -130
582 -40 1149 -44 1560 -12 504 40 871 67 1120 81 322 18 456 31 875 85 171 22
459 58 640 80 506 62 680 94 1250 231 751 180 1050 282 1636 559 401 190 722
384 989 600 307 249 662 629 883 945 134 193 375 640 482 895 179 427 243 766
215 1145 -25 353 -92 629 -230 952 l-51 118 134 130 c554 538 1028 1131 1394
1745 152 256 256 452 367 691 342 742 530 1438 608 2244 19 201 16 781 -5 995
-56 561 -175 1056 -373 1560 -86 216 -288 624 -407 823 -861 1423 -2320 2469
-4159 2981 -919 256 -1980 372 -2978 325z m1180 -243 c889 -73 1676 -242 2430
-524 769 -288 1479 -696 2065 -1187 300 -251 684 -646 880 -906 275 -363 456
-652 616 -985 309 -639 480 -1287 530 -1999 15 -214 6 -724 -16 -930 -105
-990 -426 -1904 -994 -2830 -59 -97 -270 -413 -305 -457 -12 -14 -34 -46 -51
-69 -96 -136 -358 -457 -508 -624 -170 -188 -502 -525 -517 -525 -3 0 -23 33
-45 72 -212 380 -503 753 -921 1183 -325 335 -466 436 -947 687 -305 159 -549
298 -727 416 -376 247 -521 519 -426 797 15 44 64 148 108 230 270 496 295
550 324 698 14 71 15 96 5 144 -21 108 -89 176 -215 216 -81 25 -73 25 -981
18 -335 -3 -568 0 -655 7 -74 7 -243 19 -375 27 -276 18 -349 27 -460 57 -107
28 -155 50 -187 84 -27 30 -29 35 -102 279 -24 83 -56 189 -70 236 -42 139
-104 214 -199 240 -78 21 -180 -24 -338 -148 -145 -113 -436 -361 -574 -488
-71 -66 -148 -136 -170 -157 -22 -20 -53 -47 -70 -59 -16 -13 -32 -26 -35 -29
-3 -4 -50 -40 -105 -80 -55 -41 -135 -100 -178 -132 -43 -32 -93 -66 -110 -75
-18 -9 -37 -23 -43 -30 -8 -12 -69 -15 -360 -17 -448 -3 -791 -30 -1159 -91
-346 -58 -491 -111 -774 -288 -245 -152 -324 -251 -464 -582 -107 -253 -161
-419 -252 -770 -72 -278 -100 -367 -228 -735 -240 -688 -386 -897 -1007 -1440
-265 -232 -388 -347 -635 -594 -127 -127 -258 -261 -292 -298 l-61 -67 -114
117 c-281 289 -547 636 -770 1006 -105 174 -302 573 -378 765 -185 466 -302
945 -356 1451 -22 208 -30 698 -15 920 58 855 289 1668 705 2485 323 634 704
1180 1215 1745 92 102 435 447 541 546 554 511 1191 971 1880 1359 229 129
739 381 969 479 1201 513 2385 792 3676 866 232 13 1017 4 1245 -14z m-1781
-5893 c5 -10 30 -90 56 -178 27 -88 62 -208 80 -266 37 -125 67 -180 128 -236
105 -97 310 -158 607 -182 629 -50 738 -54 1435 -47 648 5 671 5 713 -14 38
-17 42 -22 42 -56 0 -20 -14 -77 -30 -127 -32 -93 -47 -123 -236 -467 -165
-300 -204 -412 -204 -584 0 -253 154 -520 413 -718 159 -122 453 -297 837
-498 529 -277 645 -362 976 -707 445 -463 720 -836 953 -1288 198 -383 292
-736 308 -1145 15 -403 -77 -743 -342 -1272 -204 -408 -388 -678 -677 -998
-97 -108 -299 -302 -423 -407 -313 -264 -687 -484 -1235 -726 -458 -201 -673
-270 -1375 -440 -514 -125 -716 -163 -1155 -216 -486 -60 -738 -91 -885 -111
-216 -28 -451 -48 -765 -65 -282 -16 -639 -42 -975 -72 -236 -22 -1069 -24
-1385 -5 -518 32 -676 51 -1333 162 -900 151 -998 180 -1612 483 -499 246
-757 427 -1110 781 -115 116 -189 199 -227 257 -208 314 -295 630 -268 970 23
280 86 560 181 805 116 298 406 794 663 1136 241 322 580 669 1126 1152 416
369 612 574 755 791 130 198 189 323 307 645 140 384 220 639 292 927 113 450
287 887 411 1031 85 98 433 297 607 346 103 30 394 79 593 101 414 45 1041 75
1189 56 111 -13 154 1 172 59 9 29 40 56 182 160 203 149 280 213 472 391 80
74 201 181 270 239 69 57 170 142 225 189 96 80 209 161 226 161 5 0 12 -8 18
-17z"/>
<path d="M10105 14846 c-49 -13 -102 -30 -118 -37 -21 -9 -30 -10 -39 -1 -7 7
-30 12 -51 12 -37 0 -49 -9 -184 -137 -273 -258 -387 -445 -482 -784 -47 -171
-65 -304 -64 -479 2 -536 246 -1066 617 -1342 97 -72 253 -150 371 -184 111
-32 312 -44 433 -24 295 47 567 219 725 457 174 264 241 553 203 883 -52 444
-146 737 -331 1030 -110 174 -148 225 -230 305 -146 144 -295 241 -455 296
-100 35 -275 37 -395 5z m355 -232 c91 -34 221 -120 319 -210 110 -102 301
-403 372 -589 108 -280 174 -749 135 -957 -74 -392 -304 -656 -655 -750 -109
-29 -296 -29 -406 1 -165 44 -302 129 -437 269 -185 192 -305 441 -369 762
-33 164 -33 418 -1 574 58 278 177 538 317 694 44 48 45 49 94 44 49 -4 50 -4
116 58 141 131 335 170 515 104z"/>
<path d="M13821 14660 c-262 -71 -440 -231 -569 -510 -81 -175 -157 -446 -183
-646 -17 -137 -6 -423 20 -537 93 -401 362 -669 774 -771 142 -36 212 -44 463
-56 249 -11 272 -6 308 61 17 32 18 42 8 77 -15 50 -67 92 -114 92 -434 -5
-613 21 -817 121 -90 44 -117 63 -192 138 -75 76 -93 101 -137 192 -60 124
-78 194 -93 353 -39 398 137 959 366 1168 41 38 200 116 252 124 38 6 46 3 78
-25 48 -42 95 -42 136 -2 23 24 29 38 29 73 0 130 -149 197 -329 148z"/>
<path d="M5024 14331 c-39 -17 -66 -62 -61 -101 3 -19 -4 -99 -14 -178 -44
-338 -53 -454 -52 -732 2 -758 98 -1248 302 -1549 166 -244 420 -348 967 -396
93 -8 214 -15 269 -15 249 0 595 53 857 131 89 26 128 64 128 123 0 52 -26 90
-74 106 -29 9 -54 6 -182 -29 -349 -94 -667 -121 -1024 -86 -367 35 -572 99
-688 215 -124 123 -215 349 -271 670 -61 348 -78 1009 -36 1415 27 263 30 327
12 360 -30 59 -85 86 -133 66z"/>
<path d="M14352 13530 c-63 -26 -80 -99 -37 -156 32 -42 61 -50 245 -64 279
-22 524 -51 533 -63 5 -7 6 -68 2 -137 -3 -69 -8 -355 -11 -635 -3 -281 -8
-531 -11 -556 -5 -41 -2 -50 25 -80 28 -31 35 -34 86 -34 49 0 59 4 88 33 l33
32 0 684 0 684 55 -5 c30 -3 64 -12 75 -19 26 -18 72 -18 126 1 56 20 77 40
90 85 14 47 -10 104 -53 126 -35 18 -560 66 -1023 94 -82 5 -161 11 -175 14
-14 3 -36 1 -48 -4z"/>
</g>
</svg>
